<?xml version="1.0" encoding="UTF-8" standalone="no"?>
<!DOCTYPE svg PUBLIC "-//W3C//DTD SVG 1.1//EN" "http://www.w3.org/Graphics/SVG/1.1/DTD/svg11.dtd">
<!-- Generated by Microsoft Visio, SVG Export sidewalk_thread_state_machine.svg Infocenter diagram -->
<svg xmlns="http://www.w3.org/2000/svg" xmlns:xlink="http://www.w3.org/1999/xlink" xmlns:ev="http://www.w3.org/2001/xml-events"
		xmlns:v="http://schemas.microsoft.com/visio/2003/SVGExtensions/" width="5.11811in" height="3.93701in"
		viewBox="0 0 368.504 283.465" xml:space="preserve" color-interpolation-filters="sRGB" class="st17">
	<v:documentProperties v:langID="1033">
		<v:userDefs>
			<v:ud v:nameU="msvNoAutoConnect" v:val="VT0(1):26"/>
		</v:userDefs>
	</v:documentProperties>

	<style type="text/css">
	<![CDATA[
		.st1 {fill:none;stroke:none;stroke-width:0.999998}
		.st2 {fill:none;stroke:none;stroke-width:1}
		.st3 {fill:none}
		.st4 {stroke:#c8ced3;stroke-dasharray:3.99999,1.99999;stroke-linecap:butt;stroke-width:0.499998}
		.st5 {fill:#ffffff;stroke:none;stroke-linecap:butt;stroke-width:7.19999}
		.st6 {fill:#c8ced3;font-family:Arial;font-size:0.916672em}
		.st7 {fill:#00a9ce;stroke:#feffff;stroke-width:0.999997}
		.st8 {fill:#feffff;font-family:Arial;font-size:0.833336em}
		.st9 {fill:#ffffff;stroke:#00a9ce;stroke-width:0.999997}
		.st10 {fill:#feffff;stroke:none;stroke-width:0.999997}
		.st11 {fill:none;stroke:#008bab;stroke-linecap:butt;stroke-width:0.999997}
		.st12 {stroke:#008bab;stroke-linecap:butt;stroke-width:0.999997}
		.st13 {fill:#ffffff;stroke:none;stroke-width:0.999997}
		.st14 {fill:#333f48;font-family:Arial;font-size:0.916672em}
		.st15 {fill:#4bacc6;stroke:#00a9ce;stroke-width:0.999997}
		.st16 {fill:#ffffff;font-family:Calibri;font-size:1.00001em}
		.st17 {fill:none;fill-rule:evenodd;font-size:12px;overflow:visible;stroke-linecap:square;stroke-miterlimit:3}
	]]>
	</style>

	<g v:mID="0" v:index="1" v:groupContext="foregroundPage">
		<v:userDefs>
			<v:ud v:nameU="msvThemeOrder" v:val="VT0(0):26"/>
		</v:userDefs>
		<title>Infocenter diagram</title>
		<v:pageProperties v:drawingScale="0.0393701" v:pageScale="0.0393701" v:drawingUnits="24" v:shadowOffsetX="8.50392"
				v:shadowOffsetY="-8.50392"/>
		<v:layer v:name="Connector" v:index="0"/>
		<v:layer v:name="Guides" v:index="1" v:print="false" v:snap="false" v:glue="false" v:lock="true"/>
		<v:layer v:name="Diagram" v:index="2"/>
		<g id="group1-1" transform="translate(248.093,-21.6847) rotate(90)" v:mID="1" v:groupContext="group">
			<v:userDefs/>
			<title>Sheet.1</title>
			<desc>Max 750 px</desc>
			<g id="shape2-2" v:mID="2" v:groupContext="shape" v:layerMember="1" transform="translate(0,-6.60429)">
				<title>Sheet.2</title>
				<path d="M0 283.46 L566.93 283.46 L0 283.46 Z" class="st1"/>
			</g>
			<g id="group3-4" transform="translate(0,-6.60429)" v:mID="3" v:groupContext="group">
				<title>Sheet.3</title>
				<g id="shape4-5" v:mID="4" v:groupContext="shape" v:layerMember="1">
					<title>Sheet.4</title>
					<path d="M0 283.46 L566.93 283.46 L0 283.46 Z" class="st1"/>
				</g>
				<g id="group5-7" v:mID="5" v:groupContext="group">
					<title>Sheet.5</title>
					<g id="shape6-8" v:mID="6" v:groupContext="shape" v:layerMember="1">
						<title>Sheet.6</title>
						<path d="M0 283.46 L566.93 283.46 L0 283.46 Z" class="st2"/>
					</g>
					<g id="shape7-10" v:mID="7" v:groupContext="shape" v:layerMember="1">
						<title>Sheet.7</title>
						<path d="M0 283.46 L566.93 283.46 L0 283.46 Z" class="st3"/>
						<path d="M0 283.46 L566.93 283.46" class="st4"/>
					</g>
				</g>
			</g>
			<g id="shape8-13" v:mID="8" v:groupContext="shape" v:layerMember="1" transform="translate(255.033,0)">
				<title>Sheet.8</title>
				<rect x="0" y="270.264" width="56.864" height="13.2001" class="st5"/>
			</g>
			<g id="shape1-15" v:mID="1" v:groupContext="groupContent">
				<v:textBlock v:margins="rect(3.99998,3.99998,3.99998,3.99998)" v:tabSpace="42.5195"/>
				<v:textRect cx="283.464" cy="276.864" width="566.94" height="0"/>
				<text x="255.03" y="280.16" class="st6" v:langID="1033"><v:paragraph v:horizAlign="1"/><v:tabList/>Max 750 px</text>			</g>
		</g>
		<g id="group9-17" transform="translate(-28.7709,-298.549)" v:mID="9" v:groupContext="group">
			<v:userDefs/>
			<title>Sheet.9</title>
			<desc>Max 700 px</desc>
			<g id="shape10-18" v:mID="10" v:groupContext="shape" v:layerMember="1" transform="translate(0,-6.60429)">
				<title>Sheet.10</title>
				<path d="M0 283.46 L524.41 283.46 L0 283.46 Z" class="st1"/>
			</g>
			<g id="group11-20" transform="translate(0,-6.60429)" v:mID="11" v:groupContext="group">
				<title>Sheet.11</title>
				<g id="shape12-21" v:mID="12" v:groupContext="shape" v:layerMember="1">
					<title>Sheet.12</title>
					<path d="M0 283.46 L524.41 283.46 L0 283.46 Z" class="st1"/>
				</g>
				<g id="group13-23" v:mID="13" v:groupContext="group">
					<title>Sheet.13</title>
					<g id="shape14-24" v:mID="14" v:groupContext="shape" v:layerMember="1">
						<title>Sheet.14</title>
						<path d="M0 283.46 L524.41 283.46 L0 283.46 Z" class="st2"/>
					</g>
					<g id="shape15-26" v:mID="15" v:groupContext="shape" v:layerMember="1">
						<title>Sheet.15</title>
						<path d="M0 283.46 L524.41 283.46 L0 283.46 Z" class="st3"/>
						<path d="M0 283.46 L524.41 283.46" class="st4"/>
					</g>
				</g>
			</g>
			<g id="shape16-29" v:mID="16" v:groupContext="shape" v:layerMember="1" transform="translate(233.773,0)">
				<title>Sheet.16</title>
				<rect x="0" y="270.264" width="56.864" height="13.2001" class="st5"/>
			</g>
			<g id="shape9-31" v:mID="9" v:groupContext="groupContent">
				<v:textBlock v:margins="rect(3.99998,3.99998,3.99998,3.99998)" v:tabSpace="42.5195"/>
				<v:textRect cx="262.204" cy="276.864" width="524.42" height="0"/>
				<text x="233.77" y="280.16" class="st6" v:langID="1033"><v:paragraph v:horizAlign="1"/><v:tabList/>Max 700 px</text>			</g>
		</g>
		<g id="group17-33" transform="translate(779.105,-21.6847) rotate(90)" v:mID="17" v:groupContext="group">
			<title>Sheet.17</title>
			<g id="shape18-34" v:mID="18" v:groupContext="shape" v:layerMember="1">
				<title>Sheet.18</title>
				<path d="M0 283.46 L566.93 283.46 L0 283.46 Z" class="st1"/>
			</g>
			<g id="group19-36" v:mID="19" v:groupContext="group">
				<title>Sheet.19</title>
				<g id="shape20-37" v:mID="20" v:groupContext="shape" v:layerMember="1">
					<title>Sheet.20</title>
					<path d="M0 283.46 L566.93 283.46 L0 283.46 Z" class="st1"/>
				</g>
				<g id="group21-39" v:mID="21" v:groupContext="group">
					<title>Sheet.21</title>
					<g id="shape22-40" v:mID="22" v:groupContext="shape" v:layerMember="1">
						<title>Sheet.22</title>
						<path d="M0 283.46 L566.93 283.46 L0 283.46 Z" class="st2"/>
					</g>
					<g id="shape23-42" v:mID="23" v:groupContext="shape" v:layerMember="1">
						<title>Sheet.23</title>
						<path d="M0 283.46 L566.93 283.46 L0 283.46 Z" class="st3"/>
						<path d="M0 283.46 L566.93 283.46" class="st4"/>
					</g>
				</g>
			</g>
		</g>
		<g id="group24-45" transform="translate(-28.7709,261.775)" v:mID="24" v:groupContext="group">
			<title>Sheet.24</title>
			<g id="shape25-46" v:mID="25" v:groupContext="shape" v:layerMember="1">
				<title>Sheet.25</title>
				<path d="M0 283.46 L524.41 283.46 L0 283.46 Z" class="st1"/>
			</g>
			<g id="group26-48" v:mID="26" v:groupContext="group">
				<title>Sheet.26</title>
				<g id="shape27-49" v:mID="27" v:groupContext="shape" v:layerMember="1">
					<title>Sheet.27</title>
					<path d="M0 283.46 L524.41 283.46 L0 283.46 Z" class="st1"/>
				</g>
				<g id="group28-51" v:mID="28" v:groupContext="group">
					<title>Sheet.28</title>
					<g id="shape29-52" v:mID="29" v:groupContext="shape" v:layerMember="1">
						<title>Sheet.29</title>
						<path d="M0 283.46 L524.41 283.46 L0 283.46 Z" class="st2"/>
					</g>
					<g id="shape30-54" v:mID="30" v:groupContext="shape" v:layerMember="1">
						<title>Sheet.30</title>
						<path d="M0 283.46 L524.41 283.46 L0 283.46 Z" class="st3"/>
						<path d="M0 283.46 L524.41 283.46" class="st4"/>
					</g>
				</g>
			</g>
		</g>
		<g id="shape31-57" v:mID="31" v:groupContext="shape" transform="translate(174.331,-147.691)">
			<title>Rectangle</title>
			<desc>Sidewalk</desc>
			<v:userDefs>
				<v:ud v:nameU="visVersion" v:val="VT0(15):26"/>
			</v:userDefs>
			<v:textBlock v:margins="rect(3.99998,3.99998,3.99998,3.99998)" v:tabSpace="42.5195"/>
			<v:textRect cx="45.3534" cy="258.91" width="90.72" height="49.1083"/>
			<rect x="0" y="234.356" width="90.7084" height="49.1083" class="st7"/>
			<text x="25.34" y="261.91" class="st8" v:langID="1033"><v:paragraph v:horizAlign="1"/><v:tabList/>Sidewalk</text>		</g>
		<g id="shape32-60" v:mID="32" v:groupContext="shape" transform="translate(34.0157,-158.066)">
			<title>Circle.14</title>
			<v:userDefs>
				<v:ud v:nameU="visVersion" v:val="VT0(15):26"/>
			</v:userDefs>
			<path d="M0 270.37 A12.7207 13.0929 0 1 1 25.44 270.37 A12.7207 13.0929 0 0 1 0 270.37 Z" class="st9"/>
		</g>
		<g id="group33-62" transform="translate(174.331,391.487) rotate(180)" v:mID="33" v:groupContext="group">
			<v:userDefs>
				<v:ud v:nameU="Scale" v:val="VT0(1):26"/>
				<v:ud v:nameU="AntiScale" v:val="VT0(1):26"/>
				<v:ud v:nameU="visVersion" v:val="VT0(17):26"/>
			</v:userDefs>
			<title>Line Arrow.19</title>
			<g id="shape34-63" v:mID="34" v:groupContext="shape" transform="translate(108.49,0)">
				<title>Sheet.34</title>
				<path d="M0 277.06 L0 283.46 L6.39 280.26 L0 277.06 Z" class="st10"/>
			</g>
			<g id="shape35-65" v:mID="35" v:groupContext="shape" transform="translate(108.49,0)">
				<title>Sheet.35</title>
				<path d="M0 277.06 L0 283.46 L6.39 280.26 L0 277.06 Z" class="st11"/>
			</g>
			<g id="group36-67" transform="translate(1.83853E-13,-3.19999)" v:mID="36" v:groupContext="group">
				<title>Sheet.36</title>
				<g id="shape37-68" v:mID="37" v:groupContext="shape">
					<title>Sheet.37</title>
					<path d="M0 283.46 L108.49 283.46 L0 283.46 Z" class="st1"/>
				</g>
				<g id="group38-70" v:mID="38" v:groupContext="group">
					<title>Sheet.38</title>
					<g id="shape39-71" v:mID="39" v:groupContext="shape">
						<title>Sheet.39</title>
						<path d="M0 283.46 L108.49 283.46 L0 283.46 Z" class="st1"/>
					</g>
					<g id="group40-73" v:mID="40" v:groupContext="group">
						<title>Sheet.40</title>
						<g id="shape41-74" v:mID="41" v:groupContext="shape">
							<title>Sheet.41</title>
							<path d="M0 283.46 L108.49 283.46 L0 283.46 Z" class="st2"/>
						</g>
						<g id="shape42-76" v:mID="42" v:groupContext="shape">
							<title>Sheet.42</title>
							<path d="M0 283.46 L108.49 283.46 L0 283.46 Z" class="st3"/>
							<path d="M0 283.46 L108.49 283.46" class="st12"/>
						</g>
					</g>
				</g>
			</g>
		</g>
		<g id="group43-79" transform="translate(534.335,137.494) rotate(90)" v:mID="43" v:groupContext="group">
			<v:userDefs>
				<v:ud v:nameU="Scale" v:val="VT0(1):26"/>
				<v:ud v:nameU="AntiScale" v:val="VT0(1):26"/>
				<v:ud v:nameU="visVersion" v:val="VT0(17):26"/>
			</v:userDefs>
			<title>Arced Line Arrow</title>
			<g id="shape44-80" v:mID="44" v:groupContext="shape" v:layerMember="0" transform="translate(65.9798,0)">
				<title>Sheet.44</title>
				<path d="M2.65 278.15 L0 279.01 L4.37 283.46 L5.31 277.29 L2.65 278.15 Z" class="st10"/>
			</g>
			<g id="group45-82" transform="translate(-1.1191E-13,-5.30998)" v:mID="45" v:groupContext="group">
				<title>Sheet.45</title>
				<g id="shape46-83" v:mID="46" v:groupContext="shape" v:layerMember="0">
					<title>Sheet.46</title>
					<path d="M0 283.46 A37.0777 37.0777 0 0 1 68.63 283.46 L0 283.46 Z" class="st1"/>
				</g>
				<g id="group47-85" v:mID="47" v:groupContext="group">
					<title>Sheet.47</title>
					<g id="shape48-86" v:mID="48" v:groupContext="shape" v:layerMember="0">
						<title>Sheet.48</title>
						<path d="M0 283.46 A37.0777 37.0777 0 0 1 68.63 283.46 L0 283.46 Z" class="st1"/>
					</g>
					<g id="group49-88" v:mID="49" v:groupContext="group">
						<title>Sheet.49</title>
						<g id="shape50-89" v:mID="50" v:groupContext="shape" v:layerMember="0">
							<title>Sheet.50</title>
							<path d="M0 283.46 A37.0777 37.0777 0 0 1 68.63 283.46 L0 283.46 Z" class="st2"/>
						</g>
						<g id="shape51-91" v:mID="51" v:groupContext="shape" v:layerMember="0">
							<title>Sheet.51</title>
							<path d="M0 283.46 A37.0777 37.0777 0 0 1 68.63 283.46 L0 283.46 Z" class="st3"/>
							<path d="M0 283.46 A37.0777 37.0777 0 0 1 68.63 283.46" class="st12"/>
						</g>
					</g>
				</g>
			</g>
			<g id="shape52-94" v:mID="52" v:groupContext="shape" v:layerMember="0" transform="translate(65.9798,0)">
				<title>Sheet.52</title>
				<path d="M2.65 278.15 L0 279.01 L4.37 283.46 L5.31 277.29 L2.65 278.15 Z" class="st11"/>
			</g>
		</g>
		<g id="shape53-96" v:mID="53" v:groupContext="shape" transform="translate(162.992,-24.5921)">
			<title>Rectangle.21</title>
			<desc>FirmwareUpdate</desc>
			<v:userDefs>
				<v:ud v:nameU="visVersion" v:val="VT0(15):26"/>
			</v:userDefs>
			<v:textBlock v:margins="rect(3.99998,3.99998,3.99998,3.99998)" v:tabSpace="42.5195"/>
			<v:textRect cx="57.4379" cy="258.91" width="114.89" height="49.1083"/>
			<rect x="0" y="234.356" width="114.878" height="49.1083" class="st7"/>
			<text x="20.48" y="261.91" class="st8" v:langID="1033"><v:paragraph v:horizAlign="1"/><v:tabList/>FirmwareUpdate</text>		</g>
		<g id="group54-99" transform="translate(-91.9362,225.592) rotate(-93.2622)" v:mID="54" v:groupContext="group">
			<v:userDefs>
				<v:ud v:nameU="Scale" v:val="VT0(1):26"/>
				<v:ud v:nameU="AntiScale" v:val="VT0(1):26"/>
				<v:ud v:nameU="visVersion" v:val="VT0(17):26"/>
			</v:userDefs>
			<title>Arced Line Arrow.23</title>
			<g id="shape55-100" v:mID="55" v:groupContext="shape" v:layerMember="0" transform="translate(65.7398,0)">
				<title>Sheet.55</title>
				<path d="M2.65 278.15 L0 279.1 L4.55 283.46 L5.3 277.2 L2.65 278.15 Z" class="st10"/>
			</g>
			<g id="group56-102" transform="translate(2.43805E-13,-5.30998)" v:mID="56" v:groupContext="group">
				<title>Sheet.56</title>
				<g id="shape57-103" v:mID="57" v:groupContext="shape" v:layerMember="0">
					<title>Sheet.57</title>
					<path d="M0 283.46 A37.4276 37.4276 0 0 1 68.39 283.46 L0 283.46 Z" class="st1"/>
				</g>
				<g id="group58-105" v:mID="58" v:groupContext="group">
					<title>Sheet.58</title>
					<g id="shape59-106" v:mID="59" v:groupContext="shape" v:layerMember="0">
						<title>Sheet.59</title>
						<path d="M0 283.46 A37.4276 37.4276 0 0 1 68.39 283.46 L0 283.46 Z" class="st1"/>
					</g>
					<g id="group60-108" v:mID="60" v:groupContext="group">
						<title>Sheet.60</title>
						<g id="shape61-109" v:mID="61" v:groupContext="shape" v:layerMember="0">
							<title>Sheet.61</title>
							<path d="M0 283.46 A37.4276 37.4276 0 0 1 68.39 283.46 L0 283.46 Z" class="st2"/>
						</g>
						<g id="shape62-111" v:mID="62" v:groupContext="shape" v:layerMember="0">
							<title>Sheet.62</title>
							<path d="M0 283.46 A37.4276 37.4276 0 0 1 68.39 283.46 L0 283.46 Z" class="st3"/>
							<path d="M0 283.46 A37.4276 37.4276 0 0 1 68.39 283.46" class="st12"/>
						</g>
					</g>
				</g>
			</g>
			<g id="shape63-114" v:mID="63" v:groupContext="shape" v:layerMember="0" transform="translate(65.7398,0)">
				<title>Sheet.63</title>
				<path d="M2.65 278.15 L0 279.1 L4.55 283.46 L5.3 277.2 L2.65 278.15 Z" class="st11"/>
			</g>
		</g>
		<g id="shape64-116" v:mID="64" v:groupContext="shape" transform="translate(140.464,-99.3488)">
			<title>Sheet.64</title>
			<desc>Event_dfu</desc>
			<v:userDefs/>
			<v:textBlock v:margins="rect(3.99998,3.99998,3.99998,3.99998)" v:tabSpace="42.5195"/>
			<v:textRect cx="33.9404" cy="273.965" width="67.91" height="19"/>
			<rect x="0" y="264.465" width="67.8821" height="19" class="st13"/>
			<text x="9.17" y="277.26" class="st14" v:langID="1033"><v:paragraph v:horizAlign="1"/><v:tabList/>Event_dfu</text>		</g>
		<g id="shape65-119" v:mID="65" v:groupContext="shape" transform="translate(229.607,-99.3488)">
			<title>Sheet.65</title>
			<desc>Event_dfu</desc>
			<v:userDefs/>
			<v:textBlock v:margins="rect(3.99998,3.99998,3.99998,3.99998)" v:tabSpace="42.5195"/>
			<v:textRect cx="33.9404" cy="273.965" width="67.91" height="19"/>
			<rect x="0" y="264.465" width="67.8821" height="19" class="st13"/>
			<text x="9.17" y="277.26" class="st14" v:langID="1033"><v:paragraph v:horizAlign="1"/><v:tabList/>Event_dfu</text>		</g>
		<g id="shape66-122" v:mID="66" v:groupContext="shape" transform="translate(59.4536,-177.799)">
			<title>Sheet.66</title>
			<desc>Event_factory_reset</desc>
			<v:userDefs/>
			<v:textBlock v:margins="rect(3.99998,3.99998,3.99998,3.99998)" v:tabSpace="42.5195"/>
			<v:textRect cx="57.4379" cy="273.965" width="114.89" height="19"/>
			<rect x="0" y="264.465" width="114.878" height="19" class="st13"/>
			<text x="8.52" y="277.26" class="st14" v:langID="1033"><v:paragraph v:horizAlign="1"/><v:tabList/>Event_factory_reset</text>		</g>
		<g id="shape70-125" v:mID="70" v:groupContext="shape" transform="translate(38.2171,-162.992)">
			<title>Circle.70</title>
			<v:userDefs>
				<v:ud v:nameU="visVersion" v:val="VT0(15):26"/>
			</v:userDefs>
			<path d="M0 275 A8.22047 8.46102 0 1 1 16.44 275 A8.22047 8.46102 0 1 1 -0 275 Z" class="st15"/>
		</g>
		<g id="shape71-127" v:mID="71" v:groupContext="shape" transform="translate(0,-140.997)">
			<title>Sheet.71</title>
			<desc>Event_factory_reset</desc>
			<v:userDefs/>
			<v:textBlock v:margins="rect(3.99998,3.99998,3.99998,3.99998)" v:tabSpace="42.5195"/>
			<v:textRect cx="45.07" cy="276.01" width="90.15" height="14.9088"/>
			<rect x="0" y="268.556" width="90.1417" height="14.9088" class="st13"/>
			<text x="30.7" y="279.31" class="st14" v:langID="1045"><v:paragraph v:horizAlign="1"/><v:tabList/>Reset</text>		</g>
		<g id="shape73-130" v:mID="73" v:groupContext="shape" transform="translate(207.537,-250.562)">
			<title>Circle.73</title>
			<desc>Init</desc>
			<v:userDefs>
				<v:ud v:nameU="visVersion" v:val="VT0(15):26"/>
			</v:userDefs>
			<v:textBlock v:margins="rect(0,0,0,0)"/>
			<v:textRect cx="12.7207" cy="270.372" width="25.45" height="26.1859"/>
			<path d="M0 270.37 A12.7207 13.0929 0 1 1 25.44 270.37 A12.7207 13.0929 0 0 1 0 270.37 Z" class="st15"/>
			<text x="4.67" y="273.97" class="st16" v:langID="1045"><v:paragraph v:horizAlign="1"/><v:tabList/>Init</text>		</g>
		<g id="group94-133" transform="translate(500.065,11.3386) rotate(90)" v:mID="94" v:groupContext="group">
			<v:userDefs>
				<v:ud v:nameU="Scale" v:val="VT0(1):26"/>
				<v:ud v:nameU="AntiScale" v:val="VT0(1):26"/>
				<v:ud v:nameU="visVersion" v:val="VT0(17):26"/>
			</v:userDefs>
			<title>Line Arrow.94</title>
			<g id="shape95-134" v:mID="95" v:groupContext="shape" transform="translate(69.6013,0)">
				<title>Sheet.95</title>
				<path d="M0 277.06 L0 283.46 L4.1 280.26 L0 277.06 Z" class="st10"/>
			</g>
			<g id="shape96-136" v:mID="96" v:groupContext="shape" transform="translate(69.6013,0)">
				<title>Sheet.96</title>
				<path d="M0 277.06 L0 283.46 L6.3 280.26 L0 277.06 Z" class="st11"/>
			</g>
			<g id="group97-138" transform="translate(22.0469,-3.19999)" v:mID="97" v:groupContext="group">
				<title>Sheet.97</title>
				<g id="shape98-139" v:mID="98" v:groupContext="shape">
					<title>Sheet.98</title>
					<path d="M0 283.46 L47.24 283.46 L0 283.46 Z" class="st1"/>
				</g>
				<g id="group99-141" v:mID="99" v:groupContext="group">
					<title>Sheet.99</title>
					<g id="shape100-142" v:mID="100" v:groupContext="shape">
						<title>Sheet.100</title>
						<path d="M0 283.46 L47.24 283.46 L0 283.46 Z" class="st1"/>
					</g>
					<g id="group101-144" v:mID="101" v:groupContext="group">
						<title>Sheet.101</title>
						<g id="shape102-145" v:mID="102" v:groupContext="shape">
							<title>Sheet.102</title>
							<path d="M0 283.46 L47.24 283.46 L0 283.46 Z" class="st2"/>
						</g>
						<g id="shape103-147" v:mID="103" v:groupContext="shape">
							<title>Sheet.103</title>
							<path d="M0 283.46 L47.24 283.46 L0 283.46 Z" class="st3"/>
							<path d="M0 283.46 L47.24 283.46" class="st12"/>
						</g>
					</g>
				</g>
			</g>
		</g>
	</g>
</svg>
