<?xml version="1.0" encoding="UTF-8" standalone="no"?>
<!DOCTYPE svg PUBLIC "-//W3C//DTD SVG 1.1//EN" "http://www.w3.org/Graphics/SVG/1.1/DTD/svg11.dtd">
<!-- Generated by Microsoft Visio, SVG Export TX_thread_state_machine.svg Drawing -->
<svg xmlns="http://www.w3.org/2000/svg" xmlns:xlink="http://www.w3.org/1999/xlink" xmlns:ev="http://www.w3.org/2001/xml-events"
		xmlns:v="http://schemas.microsoft.com/visio/2003/SVGExtensions/" width="4.13386in" height="4.40945in"
		viewBox="0 0 297.638 317.48" xml:space="preserve" color-interpolation-filters="sRGB" class="st11">
	<v:documentProperties v:langID="1035" v:metric="true" v:viewMarkup="false">
		<v:userDefs>
			<v:ud v:nameU="msvNoAutoConnect" v:val="VT0(1):26"/>
		</v:userDefs>
	</v:documentProperties>

	<style type="text/css">
	<![CDATA[
		.st1 {stroke:#c8ced3;stroke-dasharray:4,2;stroke-linecap:butt;stroke-width:0.5}
		.st2 {fill:#ffffff;stroke:none;stroke-linecap:butt;stroke-width:7.2}
		.st3 {fill:#c8ced3;font-family:Arial;font-size:0.916672em}
		.st4 {fill:#00a9ce;stroke:#feffff;stroke-width:1}
		.st5 {fill:#feffff;font-family:Arial;font-size:0.833336em}
		.st6 {fill:#feffff}
		.st7 {stroke:#008bab;stroke-linecap:butt;stroke-width:1}
		.st8 {fill:none;stroke:none;stroke-width:1}
		.st9 {fill:#333f48;font-family:Arial;font-size:0.916672em}
		.st10 {fill:#ffffff;stroke:none;stroke-width:1}
		.st11 {fill:none;fill-rule:evenodd;font-size:12px;overflow:visible;stroke-linecap:square;stroke-miterlimit:3}
	]]>
	</style>

	<g v:mID="12" v:index="1" v:groupContext="foregroundPage">
		<v:userDefs>
			<v:ud v:nameU="msvThemeOrder" v:val="VT0(0):26"/>
		</v:userDefs>
		<title>Infocenter diagram</title>
		<v:pageProperties v:drawingScale="0.0393701" v:pageScale="0.0393701" v:drawingUnits="24" v:shadowOffsetX="8.50394"
				v:shadowOffsetY="-8.50394"/>
		<v:layer v:name="Connector" v:index="0"/>
		<v:layer v:name="Guides" v:index="1" v:print="false" v:snap="false" v:glue="false" v:lock="true"/>
		<v:layer v:name="Diagram" v:index="2"/>
		<g id="shape2-1" v:mID="2" v:groupContext="shape" v:layerMember="1" transform="translate(292.961,-58.5354) rotate(90)">
			<title>Sheet.2</title>
			<desc>Max 750 px</desc>
			<v:textBlock v:margins="rect(4,4,4,4)" v:tabSpace="42.5197"/>
			<v:textRect cx="283.465" cy="317.48" width="566.93" height="0"/>
			<path d="M0 317.48 L566.93 317.48" class="st1"/>
			<rect v:rectContext="textBkgnd" x="255.033" y="310.88" width="56.8641" height="13.2001" class="st2"/>
			<text x="255.03" y="320.78" class="st3" v:langID="1035"><v:paragraph v:horizAlign="1"/><v:tabList/>Max 750 px</text>		</g>
		<g id="shape3-6" v:mID="3" v:groupContext="shape" v:layerMember="1" transform="translate(-24.5197,-376.016)">
			<title>Sheet.3</title>
			<desc>Max 700 px</desc>
			<v:textBlock v:margins="rect(4,4,4,4)" v:tabSpace="42.5197"/>
			<v:textRect cx="262.205" cy="317.48" width="524.41" height="0"/>
			<path d="M0 317.48 L524.41 317.48" class="st1"/>
			<rect v:rectContext="textBkgnd" x="233.773" y="310.88" width="56.8641" height="13.2001" class="st2"/>
			<text x="233.77" y="320.78" class="st3" v:langID="1035"><v:paragraph v:horizAlign="1"/><v:tabList/>Max 700 px</text>		</g>
		<g id="shape4-11" v:mID="4" v:groupContext="shape" v:layerMember="1" transform="translate(817.37,-58.5354) rotate(90)">
			<title>Sheet.4</title>
			<path d="M0 317.48 L566.93 317.48" class="st1"/>
		</g>
		<g id="shape5-14" v:mID="5" v:groupContext="shape" v:layerMember="1" transform="translate(-24.5197,190.913)">
			<title>Sheet.5</title>
			<path d="M0 317.48 L524.41 317.48" class="st1"/>
		</g>
		<g id="shape6-17" v:mID="6" v:groupContext="shape" transform="translate(113.386,-260.787)">
			<title>Rectangle</title>
			<desc>Init</desc>
			<v:userDefs>
				<v:ud v:nameU="visVersion" v:val="VT0(15):26"/>
			</v:userDefs>
			<v:textBlock v:margins="rect(4,4,4,4)" v:tabSpace="42.5197"/>
			<v:textRect cx="35.4331" cy="303.531" width="70.87" height="27.8989"/>
			<rect x="0" y="289.581" width="70.8661" height="27.8989" class="st4"/>
			<text x="28.76" y="306.53" class="st5" v:langID="1045"><v:paragraph v:horizAlign="1"/><v:tabList/>Init</text>		</g>
		<g id="shape9-20" v:mID="9" v:groupContext="shape" transform="translate(466.293,58.617) rotate(90.3472)">
			<title>Line Arrow.9</title>
			<v:userDefs>
				<v:ud v:nameU="Scale" v:val="VT0(1):26"/>
				<v:ud v:nameU="AntiScale" v:val="VT0(1):26"/>
				<v:ud v:nameU="visVersion" v:val="VT0(17):26"/>
			</v:userDefs>
			<path d="M40.38 314.28 L40.38 320.68 L46.77 317.48 L40.38 314.28 Z" class="st6"/>
			<path d="M40.38 314.28 L40.38 320.68 L46.77 317.48 L40.38 314.28" class="st7"/>
			<path d="M0 317.48 L40.38 317.48" class="st7"/>
		</g>
		<g id="shape10-24" v:mID="10" v:groupContext="shape" transform="translate(99.2126,-186.117)">
			<title>Rectangle.10</title>
			<desc>Notify_Capacity</desc>
			<v:userDefs>
				<v:ud v:nameU="visVersion" v:val="VT0(15):26"/>
			</v:userDefs>
			<v:textBlock v:margins="rect(4,4,4,4)" v:tabSpace="42.5197"/>
			<v:textRect cx="49.6063" cy="303.531" width="99.22" height="27.8989"/>
			<rect x="0" y="289.581" width="99.2126" height="27.8989" class="st4"/>
			<text x="14.59" y="306.53" class="st5" v:langID="1045"><v:paragraph v:horizAlign="1"/><v:tabList/>Notify_Capacity</text>		</g>
		<g id="shape11-27" v:mID="11" v:groupContext="shape" transform="translate(137.257,-227.902)">
			<title>Sheet.11</title>
			<desc>Time_sync_success</desc>
			<v:textBlock v:margins="rect(4,4,4,4)" v:tabSpace="42.5197"/>
			<v:textRect cx="70" cy="307.98" width="140.01" height="19"/>
			<rect x="0" y="298.48" width="140" height="19" class="st8"/>
			<text x="20.48" y="311.28" class="st9" v:langID="1045"><v:paragraph v:horizAlign="1"/><v:tabList/>Time_sync_success</text>		</g>
		<g id="shape12-30" v:mID="12" v:groupContext="shape" transform="translate(99.2126,-104.882)">
			<title>Rectangle.12</title>
			<desc>Notify_Data</desc>
			<v:userDefs>
				<v:ud v:nameU="visVersion" v:val="VT0(15):26"/>
			</v:userDefs>
			<v:textBlock v:margins="rect(4,4,4,4)" v:tabSpace="42.5197"/>
			<v:textRect cx="49.6063" cy="303.531" width="99.22" height="27.8989"/>
			<rect x="0" y="289.581" width="99.2126" height="27.8989" class="st4"/>
			<text x="23.48" y="306.53" class="st5" v:langID="1045"><v:paragraph v:horizAlign="1"/><v:tabList/>Notify_Data</text>		</g>
		<g id="shape15-33" v:mID="15" v:groupContext="shape" v:layerMember="0" transform="translate(487.559,131.363) rotate(90)">
			<title>Arced Line Arrow</title>
			<v:userDefs>
				<v:ud v:nameU="Scale" v:val="VT0(1):26"/>
				<v:ud v:nameU="AntiScale" v:val="VT0(1):26"/>
				<v:ud v:nameU="visVersion" v:val="VT0(17):26"/>
			</v:userDefs>
			<path d="M0.37 311.11 L3.56 311.3 L0 317.48 L-2.81 310.93 L0.37 311.11 Z" class="st6"/>
			<path d="M0.37 311.11 A26.7178 26.7178 0 0 1 52.96 311.11" class="st7"/>
			<path d="M0.37 311.11 L3.56 311.3 L0 317.48 L-2.81 310.93 L0.37 311.11" class="st7"/>
		</g>
		<g id="shape17-37" v:mID="17" v:groupContext="shape" v:layerMember="0"
				transform="translate(-194.061,176.266) rotate(-88.4778)">
			<title>Arced Line Arrow.17</title>
			<v:userDefs>
				<v:ud v:nameU="Scale" v:val="VT0(1):26"/>
				<v:ud v:nameU="AntiScale" v:val="VT0(1):26"/>
				<v:ud v:nameU="visVersion" v:val="VT0(17):26"/>
			</v:userDefs>
			<path d="M0.39 311.02 L3.62 311.22 L0 317.48 L-2.84 310.83 L0.39 311.02 Z" class="st6"/>
			<path d="M0.39 311.02 A26.7266 26.7266 0 0 1 52.96 311.02" class="st7"/>
			<path d="M0.39 311.02 L3.62 311.22 L0 317.48 L-2.84 310.83 L0.39 311.02" class="st7"/>
		</g>
		<g id="shape18-41" v:mID="18" v:groupContext="shape" transform="translate(28.3465,462.73) scale(1,-1)">
			<title>Sheet.18</title>
			<desc>Capacity_success</desc>
			<v:textBlock v:margins="rect(4,4,4,4)" v:tabSpace="42.5197"/>
			<v:textRect cx="57.4389" cy="307.98" width="114.88" height="19"/>
			<rect x="0" y="298.48" width="114.878" height="19" class="st10"/>
			<text x="13.11" y="-304.68" transform="scale(1,-1)" class="st9" v:langID="1045"><v:paragraph v:horizAlign="1"/><v:tabList/>Capacity_success</text>		</g>
		<g id="shape19-44" v:mID="19" v:groupContext="shape" transform="translate(143.224,462.73) scale(1,-1)">
			<title>Sheet.19</title>
			<desc>Time_sync_fail</desc>
			<v:textBlock v:margins="rect(4,4,4,4)" v:tabSpace="42.5197"/>
			<v:textRect cx="57.4389" cy="307.98" width="114.88" height="19"/>
			<rect x="0" y="298.48" width="114.878" height="19" class="st10"/>
			<text x="20.76" y="-304.68" transform="scale(1,-1)" class="st9" v:langID="1045"><v:paragraph v:horizAlign="1"/><v:tabList/>Time_sync_fail</text>		</g>
		<g id="shape33-47" v:mID="33" v:groupContext="shape" transform="translate(501.732,212.598) rotate(90)">
			<title>Straight Line</title>
			<v:userDefs>
				<v:ud v:nameU="visVersion" v:prompt="" v:val="VT0(17):26"/>
			</v:userDefs>
			<path d="M0 317.48 L22.68 317.48" class="st7"/>
		</g>
		<g id="shape34-50" v:mID="34" v:groupContext="shape" transform="translate(135.765,-82.2047)">
			<title>Straight Line.34</title>
			<v:userDefs>
				<v:ud v:nameU="visVersion" v:prompt="" v:val="VT0(17):26"/>
			</v:userDefs>
			<path d="M0 317.48 L48.49 317.48" class="st7"/>
		</g>
		<g id="shape35-53" v:mID="35" v:groupContext="shape" transform="translate(-181.688,231.099) rotate(-89.2462)">
			<title>Line Arrow</title>
			<v:userDefs>
				<v:ud v:nameU="Scale" v:val="VT0(1):26"/>
				<v:ud v:nameU="AntiScale" v:val="VT0(1):26"/>
				<v:ud v:nameU="visVersion" v:val="VT0(17):26"/>
			</v:userDefs>
			<path d="M16.29 314.28 L16.29 320.68 L22.68 317.48 L16.29 314.28 Z" class="st6"/>
			<path d="M16.29 314.28 L16.29 320.68 L22.68 317.48 L16.29 314.28" class="st7"/>
			<path d="M0 317.48 L16.29 317.48" class="st7"/>
		</g>
		<g id="shape36-57" v:mID="36" v:groupContext="shape" transform="translate(515.906,212.598) rotate(90)">
			<title>Straight Line.36</title>
			<v:userDefs>
				<v:ud v:nameU="visVersion" v:prompt="" v:val="VT0(17):26"/>
			</v:userDefs>
			<path d="M0 317.48 L49.89 317.48" class="st7"/>
		</g>
		<g id="shape37-60" v:mID="37" v:groupContext="shape" transform="translate(113.087,-54.9921)">
			<title>Straight Line.37</title>
			<v:userDefs>
				<v:ud v:nameU="visVersion" v:prompt="" v:val="VT0(17):26"/>
			</v:userDefs>
			<path d="M0 317.48 L85.34 317.48" class="st7"/>
		</g>
		<g id="shape38-63" v:mID="38" v:groupContext="shape" transform="translate(-204.375,259.147) rotate(-89.3969)">
			<title>Line Arrow.38</title>
			<v:userDefs>
				<v:ud v:nameU="Scale" v:val="VT0(1):26"/>
				<v:ud v:nameU="AntiScale" v:val="VT0(1):26"/>
				<v:ud v:nameU="visVersion" v:val="VT0(17):26"/>
			</v:userDefs>
			<path d="M43.5 314.28 L43.5 320.68 L49.89 317.48 L43.5 314.28 Z" class="st6"/>
			<path d="M43.5 314.28 L43.5 320.68 L49.89 317.48 L43.5 314.28" class="st7"/>
			<path d="M0 317.48 L43.5 317.48" class="st7"/>
		</g>
		<g id="shape39-67" v:mID="39" v:groupContext="shape" transform="translate(121.89,556.433) scale(1,-1)">
			<title>Sheet.39</title>
			<desc>Action_notify</desc>
			<v:textBlock v:margins="rect(4,4,4,4)" v:tabSpace="42.5197"/>
			<v:textRect cx="36.8504" cy="312.232" width="73.71" height="10.4961"/>
			<rect x="0" y="306.984" width="73.7008" height="10.4961" class="st10"/>
			<text x="5.36" y="-308.93" transform="scale(1,-1)" class="st9" v:langID="1045"><v:paragraph v:horizAlign="1"/><v:tabList/>Action_notify</text>		</g>
		<g id="shape40-70" v:mID="40" v:groupContext="shape" transform="translate(113.087,583.937) scale(1,-1)">
			<title>Sheet.40</title>
			<desc>Action_response</desc>
			<v:textBlock v:margins="rect(4,4,4,4)" v:tabSpace="42.5197"/>
			<v:textRect cx="49.6063" cy="312.232" width="99.22" height="10.4961"/>
			<rect x="0" y="306.984" width="99.2126" height="10.4961" class="st10"/>
			<text x="8.64" y="-308.93" transform="scale(1,-1)" class="st9" v:langID="1045"><v:paragraph v:horizAlign="1"/><v:tabList/>Action_response</text>		</g>
	</g>
</svg>
